<svg id="Layer_3" height="512" viewBox="0 0 64 64" width="512" xmlns="http://www.w3.org/2000/svg" data-name="Layer 3"><path d="m57 18h-50a3 3 0 0 0 -3 3v3h56v-3a3 3 0 0 0 -3-3z" fill="#d73965"/><path d="m55 18h-48a3 3 0 0 0 -3 3h48a3 3 0 0 0 3-3z" fill="#db507a"/><circle cx="32" cy="13" fill="#bce4f8" r="11"/><path d="m2 24h60v4h-60z" fill="#e27395"/><path d="m32 2a10.992 10.992 0 0 0 -9.213 17h11.213a4 4 0 0 0 4-4v-11.213a10.945 10.945 0 0 0 -6-1.787z" fill="#e4f5fd"/><path d="m4 28h56v34h-56z" fill="#ccc"/><path d="m4 28v30h49a4 4 0 0 0 4-4v-26z" fill="#f2f2f2"/><path d="m26 40h30v18h-30z" fill="#bce4f8"/><path d="m26 40v10h22a4 4 0 0 0 4-4v-6z" fill="#e4f5fd"/><circle cx="41" cy="47" fill="#d73965" r="2"/><path d="m41.973 45.263a1.972 1.972 0 0 0 -.973-.263 2 2 0 0 0 -2 2 1.972 1.972 0 0 0 .263.973 2.98 2.98 0 0 0 2.71-2.71z" fill="#db507a"/><circle cx="49" cy="47" fill="#d73965" r="2"/><path d="m49.973 45.263a1.972 1.972 0 0 0 -.973-.263 2 2 0 0 0 -2 2 1.972 1.972 0 0 0 .263.973 2.98 2.98 0 0 0 2.71-2.71z" fill="#db507a"/><path d="m50 28v2a6 6 0 0 0 12 0v-2z" fill="#d73965"/><path d="m26 28v2a6 6 0 0 0 12 0v-2z" fill="#d73965"/><path d="m30.5 35.8a6 6 0 0 0 4.5-5.8v-2h-9v2a6 6 0 0 0 4.5 5.8z" fill="#db507a"/><path d="m14 28v2a6 6 0 0 0 12 0v-2z" fill="#d73965"/><path d="m18.5 35.8a6 6 0 0 0 4.5-5.8v-2h-9v2a6 6 0 0 0 4.5 5.8z" fill="#db507a"/><path d="m2 28v2a6 6 0 0 0 12 0v-2z" fill="#d73965"/><path d="m6.5 35.8a6 6 0 0 0 4.5-5.8v-2h-9v2a6 6 0 0 0 4.5 5.8z" fill="#db507a"/><path d="m54.5 35.8a6 6 0 0 0 4.5-5.8v-2h-9v2a6 6 0 0 0 4.5 5.8z" fill="#db507a"/><path d="m38 28v2a6 6 0 0 0 12 0v-2z" fill="#d73965"/><path d="m42.5 35.8a6 6 0 0 0 4.5-5.8v-2h-9v2a6 6 0 0 0 4.5 5.8z" fill="#db507a"/><path d="m8 40h14v22h-14z" fill="#bce4f8"/><path d="m12 44h6v10h-6z" fill="#e4f5fd"/><path d="m8 58h14v4h-14z" fill="#d73965"/><circle cx="32" cy="13" fill="#db507a" r="4"/><path d="m26 53h30v2h-30z" fill="#fff"/><g fill="#d73965"><path d="m34.5 7.5 1.5-1.5 3 3-1.5 1.5a2.122 2.122 0 0 1 -3 0 2.122 2.122 0 0 1 0-3z"/><path d="m26.379 15.621-1.5 1.5 3 3 1.5-1.5a2.122 2.122 0 0 0 0-3 2.122 2.122 0 0 0 -3 0z"/><circle cx="33" cy="47" r="2"/></g><path d="m33.973 45.263a1.972 1.972 0 0 0 -.973-.263 2 2 0 0 0 -2 2 1.972 1.972 0 0 0 .263.973 2.98 2.98 0 0 0 2.71-2.71z" fill="#db507a"/><path d="m63 24a1 1 0 0 0 -1-1h-1v-2a4 4 0 0 0 -4-4h-13.7a12 12 0 1 0 -22.6 0h-13.7a4 4 0 0 0 -4 4v2h-1a1 1 0 0 0 -1 1v6a6.971 6.971 0 0 0 2 4.889v27.111a1 1 0 0 0 1 1h56a1 1 0 0 0 1-1v-27.111a6.971 6.971 0 0 0 2-4.889zm-6-5a2 2 0 0 1 2 2v2h-20.381a12.074 12.074 0 0 0 3.757-4zm-25-16a10 10 0 1 1 -10 10 10.011 10.011 0 0 1 10-10zm-27 18a2 2 0 0 1 2-2h14.624a12.074 12.074 0 0 0 3.757 4h-20.381zm56 4v2h-58v-2zm-58 5v-1h10v1a5 5 0 0 1 -10 0zm12-1h10v1a5 5 0 0 1 -10 0zm12 0h10v1a5 5 0 0 1 -10 0zm12 0h10v1a5 5 0 0 1 -10 0zm-18 28h-12v-16h12zm-12 2h12v2h-12zm14 2v-21a1 1 0 0 0 -1-1h-14a1 1 0 0 0 -1 1v21h-2v-24.685a6.961 6.961 0 0 0 9-2.728 6.98 6.98 0 0 0 12 0 6.98 6.98 0 0 0 12 0 6.98 6.98 0 0 0 12 0 6.961 6.961 0 0 0 9 2.728v24.685zm33-26a5.006 5.006 0 0 1 -5-5v-1h10v1a5.006 5.006 0 0 1 -5 5z"/><path d="m12 55h6a1 1 0 0 0 1-1v-10a1 1 0 0 0 -1-1h-6a1 1 0 0 0 -1 1v10a1 1 0 0 0 1 1zm1-10h4v8h-4z"/><path d="m56 39h-30a1 1 0 0 0 -1 1v18a1 1 0 0 0 1 1h30a1 1 0 0 0 1-1v-18a1 1 0 0 0 -1-1zm-1 2v12h-5v-3.184a3 3 0 1 0 -2 0v3.184h-6v-3.184a3 3 0 1 0 -2 0v3.184h-6v-3.184a3 3 0 1 0 -2 0v3.184h-5v-12zm-7 6a1 1 0 1 1 1 1 1 1 0 0 1 -1-1zm-8 0a1 1 0 1 1 1 1 1 1 0 0 1 -1-1zm-8 0a1 1 0 1 1 1 1 1 1 0 0 1 -1-1zm-5 10v-2h28v2z"/><path d="m27.879 21.121a1 1 0 0 0 .707-.293l1.5-1.5a3.1 3.1 0 0 0 .886-2.479 3.923 3.923 0 0 0 1.028.151 3.971 3.971 0 0 0 3.892-4.891c.036 0 .072.01.108.01a3.112 3.112 0 0 0 2.207-.912l1.5-1.5a1 1 0 0 0 0-1.414l-3-3a1 1 0 0 0 -1.414 0l-1.5 1.5a3.1 3.1 0 0 0 -.915 2.207c0 .036.01.071.011.107a3.973 3.973 0 0 0 -4.889 3.893 3.916 3.916 0 0 0 .151 1.027 3.1 3.1 0 0 0 -2.479.887l-1.5 1.5a1 1 0 0 0 0 1.414l3 3a1 1 0 0 0 .707.293zm7.328-12.914.793-.793 1.586 1.586-.793.793a1.125 1.125 0 0 1 -1.586 0 1.12 1.12 0 0 1 0-1.586zm-3.207 2.793a2 2 0 1 1 -2 2 2 2 0 0 1 2-2zm-4.914 5.328a1.121 1.121 0 0 1 1.586 1.586l-.793.793-1.586-1.586z"/></svg>