<?xml version="1.0" encoding="iso-8859-1"?>
<!-- Generator: Adobe Illustrator 19.0.0, SVG Export Plug-In . SVG Version: 6.00 Build 0)  -->
<svg version="1.1" id="Capa_1" xmlns="http://www.w3.org/2000/svg" xmlns:xlink="http://www.w3.org/1999/xlink" x="0px" y="0px"
	 viewBox="0 0 512 512" style="enable-background:new 0 0 512 512;" xml:space="preserve">
<path style="fill:#FFA426;" d="M114.689,499.982l28.881-113.734c0.849-5.091-1.062-9.97-4.455-13.363
	c-3.394-3.394-8.272-5.305-13.363-4.455L12.018,397.311c-4.244,0.849-7.85,3.606-9.971,7.425c-2.334,3.606-2.545,8.061-1.273,12.304
	l2.333,6.575c6.576,20.153,18.031,37.972,32.668,52.61c14.637,14.637,32.457,26.092,52.61,32.668l6.575,2.333
	c4.243,1.273,8.698,1.062,12.304-1.273C111.083,507.832,113.84,504.226,114.689,499.982z"/>
<path style="fill:#FF873C;" d="M114.689,499.982c-0.849,4.244-3.606,7.85-7.425,9.971c-3.606,2.334-8.061,2.545-12.304,1.273
	l-6.575-2.333c-20.153-6.576-37.972-18.031-52.61-32.668l103.34-103.34c3.394,3.394,5.305,8.272,4.455,13.363L114.689,499.982z"/>
<path style="fill:#FF3F2E;" d="M285.699,396.007L256,425.706c-29.274,29.274-76.792,29.274-106.066,0l-63.64-63.64
	c-11.244-11.244-18.031-25.245-20.789-39.881l43.699-31.396l83.792,28.214l95.035,32.244L285.699,396.007z"/>
<path style="fill:#FF2121;" d="M288.032,351.247l-2.333,44.76L256,425.706c-29.274,29.274-76.792,29.274-106.066,0l-31.82-31.82
	l74.883-74.883L288.032,351.247z"/>
<path style="fill:#FFDA45;" d="M370.552,311.154l-84.853,84.853l-127.067-42.639l-93.126-31.183
	c-3.818-22.486,2.97-48.367,20.789-66.185l31.184-31.184l65.973-23.546l94.822,32.457l94.824,32.456L370.552,311.154z"/>
<polygon style="fill:#FFBC36;" points="370.552,311.154 285.699,396.007 158.632,353.368 278.274,233.726 373.097,266.182 "/>
<path style="fill:#FF3F2E;" d="M425.706,256c-30.97,30.97-24.183,24.183-55.154,55.154l-126.643-43.062l-126.43-43.276
	c20.576-20.576,4.031-4.031,85.489-85.489l44.972-2.545l95.672,31.607l60.034,19.728l42.002,31.395
	C442.464,232.877,436.1,245.606,425.706,256z"/>
<path style="fill:#FF2121;" d="M425.706,256c-30.97,30.97-24.183,24.183-55.154,55.154l-126.643-43.062l99.702-99.702l60.034,19.728
	l42.002,31.395C442.464,232.877,436.1,245.606,425.706,256z"/>
<path style="fill:#FFA426;" d="M509.953,107.264c2.334-3.606,2.545-8.061,1.273-12.304l-2.332-6.576
	c-6.788-19.94-18.032-37.971-32.669-52.608S443.557,9.895,423.617,3.107l-6.576-2.332c-4.243-1.273-8.698-1.062-12.304,1.273
	c-3.818,2.12-6.576,5.727-7.424,9.97l-28.881,113.734c-0.849,5.091,0.636,9.971,4.242,13.577c3.606,3.606,8.486,5.091,13.577,4.242
	l113.734-28.881C504.226,113.84,507.833,111.082,509.953,107.264z"/>
<path style="fill:#FF873C;" d="M386.249,143.569c-5.091,0.849-9.971-0.636-13.577-4.242L476.225,35.775
	c14.637,14.637,25.881,32.668,32.669,52.608l2.332,6.576c1.273,4.243,1.062,8.698-1.273,12.304c-2.12,3.818-5.727,6.576-9.97,7.424
	L386.249,143.569z"/>
<path style="fill:#FFDA45;" d="M445.646,219.513l-115.188-37.971l-127.492-42.214L256,86.294c29.274-29.274,76.792-29.274,106.066,0
	l63.64,63.64C443.101,167.329,451.586,192.784,445.646,219.513z"/>
<path style="fill:#FFBC36;" d="M445.646,219.513l-115.188-37.971l63.427-63.427l31.82,31.82
	C443.101,167.329,451.586,192.784,445.646,219.513z"/>
<g>
</g>
<g>
</g>
<g>
</g>
<g>
</g>
<g>
</g>
<g>
</g>
<g>
</g>
<g>
</g>
<g>
</g>
<g>
</g>
<g>
</g>
<g>
</g>
<g>
</g>
<g>
</g>
<g>
</g>
</svg>
